<svg width="36" height="36" viewBox="0 0 36 36" fill="none" xmlns="http://www.w3.org/2000/svg">
<path d="M10.8 28.8C8.82 28.8 7.218 30.42 7.218 32.4C7.218 34.38 8.82 36 10.8 36C12.78 36 14.4 34.38 14.4 32.4C14.4 30.42 12.78 28.8 10.8 28.8ZM0 0V3.6H3.6L10.08 17.262L7.65 21.672C7.362 22.176 7.2 22.77 7.2 23.4C7.2 25.38 8.82 27 10.8 27H32.4V23.4H11.556C11.304 23.4 11.106 23.202 11.106 22.95L11.16 22.734L12.78 19.8H26.19C27.54 19.8 28.728 19.062 29.34 17.946L35.784 6.264C35.928 6.012 36 5.706 36 5.4C36 4.41 35.19 3.6 34.2 3.6H7.578L5.886 0H0ZM28.8 28.8C26.82 28.8 25.218 30.42 25.218 32.4C25.218 34.38 26.82 36 28.8 36C30.78 36 32.4 34.38 32.4 32.4C32.4 30.42 30.78 28.8 28.8 28.8Z" fill="white"/>
</svg>
